<svg width="375" height="52" viewBox="0 0 375 52" fill="none" xmlns="http://www.w3.org/2000/svg">
<rect width="375" height="52" fill="#BDE6FB"/>
<g filter="url(#filter0_d)">
<path d="M63.8001 5.2C65.6081 5.2 66.9761 5.672 67.9041 6.616C68.8481 7.544 69.3201 8.912 69.3201 10.72V16.48C69.3201 18.288 68.8481 19.664 67.9041 20.608C66.9761 21.536 65.6081 22 63.8001 22H54.4401V5.2H63.8001ZM65.0001 10.72C65.0001 9.28 64.2801 8.56 62.8401 8.56H58.7601V18.64H62.8401C64.2801 18.64 65.0001 17.92 65.0001 16.48V10.72ZM76.3936 12.04C75.7536 12.04 75.4336 12.36 75.4336 13V14.32H79.5136V13C79.5136 12.36 79.1936 12.04 78.5536 12.04H76.3936ZM83.2336 21.76C80.1456 22.08 77.3456 22.24 74.8336 22.24C73.7456 22.24 72.8736 21.912 72.2176 21.256C71.5616 20.6 71.2336 19.728 71.2336 18.64V12.88C71.2336 11.68 71.5696 10.744 72.2416 10.072C72.9296 9.384 73.8736 9.04 75.0736 9.04H79.8736C81.0736 9.04 82.0096 9.384 82.6816 10.072C83.3696 10.744 83.7136 11.68 83.7136 12.88V17.32H75.4336V18.28C75.4336 18.52 75.5136 18.72 75.6736 18.88C75.8336 19.04 76.0336 19.12 76.2736 19.12C77.8576 19.12 80.1776 19 83.2336 18.76V21.76ZM94.1498 9.28H98.5898L93.7898 22H88.9898L84.1898 9.28H88.6298L91.3898 17.92L94.1498 9.28Z" fill="#2BB7FF"/>
</g>
<g filter="url(#filter1_d)">
<path d="M37.44 25.5922H47.04C48.608 25.5922 49.76 25.9522 50.496 26.6722C51.232 27.3762 51.6 28.4562 51.6 29.9122C51.6 30.8722 51.392 31.6562 50.976 32.2642C50.56 32.8562 50.048 33.2722 49.44 33.5122C50.736 33.8642 51.616 34.7282 52.08 36.1042C52.24 36.6002 52.32 37.1762 52.32 37.8322C52.32 39.4002 51.952 40.5522 51.216 41.2882C50.48 42.0242 49.328 42.3922 47.76 42.3922H37.44V25.5922ZM48 37.1122C48 36.1522 47.52 35.6722 46.56 35.6722H41.76V39.0322H46.56C47.52 39.0322 48 38.5522 48 37.5922V37.1122ZM47.28 30.3922C47.28 29.4322 46.8 28.9522 45.84 28.9522H41.76V32.3122H45.84C46.8 32.3122 47.28 31.8322 47.28 30.8722V30.3922ZM67.1991 38.7922C67.1991 39.9922 66.8551 40.9362 66.1671 41.6242C65.4951 42.2962 64.5591 42.6322 63.3591 42.6322H57.8391C56.6391 42.6322 55.6951 42.2962 55.0071 41.6242C54.3351 40.9362 53.9991 39.9922 53.9991 38.7922V33.2722C53.9991 32.0722 54.3351 31.1362 55.0071 30.4642C55.6951 29.7762 56.6391 29.4322 57.8391 29.4322H63.3591C64.5591 29.4322 65.4951 29.7762 66.1671 30.4642C66.8551 31.1362 67.1991 32.0722 67.1991 33.2722V38.7922ZM62.9991 33.6322C62.9991 32.9922 62.6791 32.6722 62.0391 32.6722H59.1591C58.5191 32.6722 58.1991 32.9922 58.1991 33.6322V38.4322C58.1991 39.0722 58.5191 39.3922 59.1591 39.3922H62.0391C62.6791 39.3922 62.9991 39.0722 62.9991 38.4322V33.6322ZM75.2363 39.1522C76.0843 39.1522 77.0443 38.9922 78.1163 38.6722V29.6722H82.3163V42.3922H78.5963L78.3563 41.1922C77.6043 41.6882 76.8283 42.0562 76.0283 42.2962C75.2443 42.5202 74.5803 42.6322 74.0363 42.6322H72.9563C71.8683 42.6322 70.9963 42.3042 70.3403 41.6482C69.6843 40.9922 69.3563 40.1202 69.3563 39.0322V29.6722H73.5563V38.3122C73.5563 38.5522 73.6363 38.7522 73.7963 38.9122C73.9563 39.0722 74.1563 39.1522 74.3963 39.1522H75.2363ZM92.0278 33.1522C91.0198 33.1522 89.9798 33.3922 88.9078 33.8722V42.3922H84.7078V29.6722H88.4278L88.6678 31.2322C90.0438 30.0322 91.4838 29.4322 92.9878 29.4322H94.0678V33.1522H92.0278ZM99.9469 29.9122C101.499 29.5922 102.859 29.4322 104.027 29.4322H105.107C106.195 29.4322 107.067 29.7602 107.723 30.4162C108.379 31.0722 108.707 31.9442 108.707 33.0322V42.3922H104.507V33.5122C104.507 33.2722 104.427 33.0722 104.267 32.9122C104.107 32.7522 103.907 32.6722 103.667 32.6722H102.827C102.219 32.6722 101.659 32.7042 101.147 32.7682C100.651 32.8322 100.251 32.8802 99.9469 32.9122V42.3922H95.7469V25.5922H99.9469V29.9122ZM115.784 32.4322C115.144 32.4322 114.824 32.7522 114.824 33.3922V34.7122H118.904V33.3922C118.904 32.7522 118.584 32.4322 117.944 32.4322H115.784ZM122.624 42.1522C119.536 42.4722 116.736 42.6322 114.224 42.6322C113.136 42.6322 112.264 42.3042 111.608 41.6482C110.952 40.9922 110.624 40.1202 110.624 39.0322V33.2722C110.624 32.0722 110.96 31.1362 111.632 30.4642C112.32 29.7762 113.264 29.4322 114.464 29.4322H119.264C120.464 29.4322 121.4 29.7762 122.072 30.4642C122.76 31.1362 123.104 32.0722 123.104 33.2722V37.7122H114.824V38.6722C114.824 38.9122 114.904 39.1122 115.064 39.2722C115.224 39.4322 115.424 39.5122 115.664 39.5122C117.248 39.5122 119.568 39.3922 122.624 39.1522V42.1522ZM130.175 32.4322C129.535 32.4322 129.215 32.7522 129.215 33.3922V34.7122H133.295V33.3922C133.295 32.7522 132.975 32.4322 132.335 32.4322H130.175ZM137.015 42.1522C133.927 42.4722 131.127 42.6322 128.615 42.6322C127.527 42.6322 126.655 42.3042 125.999 41.6482C125.343 40.9922 125.015 40.1202 125.015 39.0322V33.2722C125.015 32.0722 125.351 31.1362 126.023 30.4642C126.711 29.7762 127.655 29.4322 128.855 29.4322H133.655C134.855 29.4322 135.791 29.7762 136.463 30.4642C137.151 31.1362 137.495 32.0722 137.495 33.2722V37.7122H129.215V38.6722C129.215 38.9122 129.295 39.1122 129.455 39.2722C129.615 39.4322 129.815 39.5122 130.055 39.5122C131.639 39.5122 133.959 39.3922 137.015 39.1522V42.1522ZM148.165 29.4322C149.461 29.4322 150.461 29.9122 151.165 30.8722C151.901 30.3762 152.693 30.0162 153.541 29.7922C154.405 29.5522 155.173 29.4322 155.845 29.4322H156.085C157.173 29.4322 158.045 29.7602 158.701 30.4162C159.357 31.0722 159.685 31.9442 159.685 33.0322V42.3922H155.485V33.7522C155.485 33.5122 155.405 33.3122 155.245 33.1522C155.085 32.9922 154.885 32.9122 154.645 32.9122H154.525C153.805 32.9122 152.885 33.0722 151.765 33.3922V42.3922H147.565V33.7522C147.565 33.5122 147.485 33.3122 147.325 33.1522C147.165 32.9922 146.965 32.9122 146.725 32.9122H146.605C145.885 32.9122 144.965 33.0722 143.845 33.3922V42.3922H139.645V29.6722H143.365L143.605 30.8722C144.357 30.3762 145.125 30.0162 145.909 29.7922C146.709 29.5522 147.381 29.4322 147.925 29.4322H148.165Z" fill="#2BB7FF"/>
</g>
<g filter="url(#filter2_d)">
<path d="M129.634 6.2633L130.546 8.15263L132.59 8.45342C132.8 8.484 132.883 8.74706 132.732 8.89695L131.253 10.3652L131.603 12.4411C131.611 12.4889 131.606 12.5381 131.588 12.5831C131.57 12.6281 131.54 12.667 131.501 12.6956C131.463 12.7241 131.417 12.7411 131.37 12.7446C131.322 12.7481 131.275 12.738 131.233 12.7154L129.405 11.7345L127.578 12.7154C127.536 12.738 127.488 12.7481 127.441 12.7446C127.393 12.7411 127.348 12.7241 127.309 12.6956C127.271 12.667 127.241 12.6281 127.223 12.5831C127.205 12.5381 127.2 12.4889 127.208 12.4411L127.558 10.3662L126.078 8.89796C126.043 8.8641 126.019 8.82106 126.007 8.77375C125.996 8.72644 125.998 8.67677 126.012 8.63042C126.027 8.58406 126.055 8.54289 126.091 8.51159C126.128 8.48029 126.172 8.46013 126.22 8.45342L128.264 8.15263L129.176 6.2633C129.197 6.21961 129.229 6.18281 129.27 6.15707C129.31 6.13132 129.357 6.11768 129.405 6.11768C129.453 6.11768 129.499 6.13132 129.54 6.15707C129.58 6.18281 129.613 6.21961 129.634 6.2633Z" fill="#2BB7FF"/>
</g>
<g filter="url(#filter3_d)">
<path d="M136 10.1971C136 9.0264 135.718 7.87365 135.178 6.84042C134.638 5.80719 133.857 4.92522 132.904 4.27224C131.952 3.61925 130.856 3.21531 129.713 3.096C128.571 2.97669 127.418 3.14569 126.355 3.58809C125.292 4.0305 124.352 4.73272 123.618 5.63288C122.884 6.53305 122.378 7.6035 122.145 8.74991C121.913 9.89631 121.96 11.0835 122.284 12.2067C122.607 13.33 123.197 14.3549 124 15.1911V22.6873L124.008 22.7943C124.026 22.9241 124.076 23.047 124.154 23.1512C124.232 23.2553 124.335 23.3374 124.453 23.3894C124.571 23.4414 124.7 23.4616 124.828 23.4481C124.956 23.4346 125.078 23.3878 125.183 23.3123L128.999 20.5726L132.818 23.3133L132.907 23.3684C133.021 23.4281 133.149 23.4569 133.277 23.452C133.406 23.447 133.531 23.4085 133.64 23.3401C133.75 23.2718 133.841 23.1758 133.903 23.0615C133.966 22.9472 133.999 22.8183 133.999 22.6873L134.001 15.1911C135.285 13.8586 136.003 12.0648 136 10.1971ZM132.5 16.38V21.214L129.43 19.0116L129.33 18.9504C129.209 18.8898 129.075 18.8636 128.94 18.8743C128.806 18.8851 128.677 18.9325 128.567 19.0116L125.501 21.214V16.38C126.565 17.007 127.772 17.3362 129 17.3344C130.275 17.3344 131.47 16.9877 132.5 16.38ZM123.5 10.1971C123.5 8.7098 124.08 7.28342 125.111 6.23175C126.142 5.18008 127.541 4.58925 129 4.58925C130.459 4.58925 131.858 5.18008 132.889 6.23175C133.921 7.28342 134.5 8.7098 134.5 10.1971C134.5 11.6844 133.921 13.1108 132.889 14.1624C131.858 15.2141 130.459 15.8049 129 15.8049C127.541 15.8049 126.142 15.2141 125.111 14.1624C124.08 13.1108 123.5 11.6844 123.5 10.1971Z" fill="#2BB7FF"/>
</g>
<path d="M210.382 37.2383L209.84 35.3584C209.814 35.2998 209.778 35.2705 209.732 35.2705H207.481C207.442 35.2705 207.408 35.2965 207.379 35.3486L206.212 37.8291L205.299 38.0195L205.27 37.9219C205.862 36.9225 206.443 35.9134 207.013 34.8945C207.586 33.8724 208.134 32.8405 208.658 31.7988C208.665 31.7793 208.668 31.7565 208.668 31.7305C208.668 31.7174 208.66 31.6979 208.644 31.6719C208.627 31.6426 208.596 31.6247 208.551 31.6182L207.652 31.4717V31.1982H209.591C209.643 31.4717 209.721 31.8167 209.825 32.2334C209.929 32.6501 210.045 33.0879 210.172 33.5469C210.299 34.0026 210.414 34.4307 210.519 34.8311C210.632 35.238 210.758 35.6611 210.895 36.1006C211.031 36.54 211.189 36.9095 211.368 37.209C211.433 37.3164 211.523 37.3945 211.637 37.4434C211.754 37.4889 211.878 37.5117 212.008 37.5117C212.083 37.5117 212.156 37.5085 212.228 37.502C212.302 37.4954 212.374 37.4889 212.442 37.4824L212.452 37.7412L211.412 38.0391C211.266 38.0781 211.114 38.0977 210.958 38.0977C210.792 38.0977 210.668 38.0098 210.587 37.834C210.509 37.6582 210.44 37.4596 210.382 37.2383ZM208.839 32.2822L207.682 34.7188C207.675 34.7253 207.672 34.7415 207.672 34.7676C207.672 34.7904 207.672 34.805 207.672 34.8115C207.672 34.8571 207.695 34.8799 207.74 34.8799H209.62C209.666 34.8799 209.688 34.8571 209.688 34.8115C209.688 34.8115 209.685 34.7969 209.679 34.7676C209.672 34.7415 209.669 34.7253 209.669 34.7188L208.971 32.2822C208.958 32.2562 208.935 32.2415 208.902 32.2383C208.86 32.2415 208.839 32.2562 208.839 32.2822ZM215.348 36.8818H215.455L215.567 36.999C215.453 37.1715 215.32 37.3457 215.167 37.5215C215.014 37.694 214.843 37.8356 214.654 37.9463C214.469 38.057 214.267 38.1123 214.049 38.1123C213.883 38.1123 213.738 38.0732 213.614 37.9951C213.491 37.917 213.395 37.777 213.326 37.5752C213.261 37.3701 213.229 37.0788 213.229 36.7012L213.297 32.9219C213.297 32.7559 213.295 32.5785 213.292 32.3896C213.289 32.1976 213.274 32.0413 213.248 31.9209C213.229 31.8135 213.168 31.7419 213.067 31.7061C212.966 31.6702 212.853 31.6491 212.726 31.6426C212.599 31.6328 212.483 31.6247 212.379 31.6182V31.3887L212.438 31.3398L214.088 31.1396L214.146 31.208C214.127 31.9079 214.098 32.6094 214.059 33.3125C214.023 34.0124 214.005 34.7122 214.005 35.4121C214.005 35.7376 214.003 36.0469 214 36.3398C213.997 36.6328 214.026 36.8721 214.088 37.0576C214.153 37.2399 214.286 37.3376 214.488 37.3506C214.654 37.3506 214.807 37.3001 214.947 37.1992C215.087 37.0951 215.221 36.9893 215.348 36.8818ZM218.355 36.8818H218.463L218.575 36.999C218.461 37.1715 218.328 37.3457 218.175 37.5215C218.022 37.694 217.851 37.8356 217.662 37.9463C217.477 38.057 217.275 38.1123 217.057 38.1123C216.891 38.1123 216.746 38.0732 216.622 37.9951C216.498 37.917 216.402 37.777 216.334 37.5752C216.269 37.3701 216.236 37.0788 216.236 36.7012L216.305 32.9219C216.305 32.7559 216.303 32.5785 216.3 32.3896C216.297 32.1976 216.282 32.0413 216.256 31.9209C216.236 31.8135 216.176 31.7419 216.075 31.7061C215.974 31.6702 215.86 31.6491 215.733 31.6426C215.606 31.6328 215.491 31.6247 215.387 31.6182V31.3887L215.445 31.3398L217.096 31.1396L217.154 31.208C217.135 31.9079 217.105 32.6094 217.066 33.3125C217.031 34.0124 217.013 34.7122 217.013 35.4121C217.013 35.7376 217.011 36.0469 217.008 36.3398C217.005 36.6328 217.034 36.8721 217.096 37.0576C217.161 37.2399 217.294 37.3376 217.496 37.3506C217.662 37.3506 217.815 37.3001 217.955 37.1992C218.095 37.0951 218.229 36.9893 218.355 36.8818ZM224.552 34.6895L224.532 34.7676L227.164 37.7314V37.8193L226.173 38.0781C225.938 37.7786 225.691 37.4645 225.431 37.1357C225.174 36.8037 224.926 36.4863 224.688 36.1836C224.451 35.8809 224.243 35.6221 224.063 35.4072C223.884 35.1891 223.757 35.0426 223.683 34.9678C223.624 34.9092 223.557 34.8799 223.482 34.8799C223.482 35.3584 223.484 35.8402 223.487 36.3252C223.491 36.807 223.505 37.2887 223.531 37.7705L222.701 38.0586L222.594 37.9707C222.633 37.2448 222.657 36.5189 222.667 35.793C222.677 35.0638 222.682 34.3363 222.682 33.6104C222.682 33.5713 222.68 33.4883 222.677 33.3613C222.674 33.2344 222.67 33.0846 222.667 32.9121C222.664 32.7363 222.66 32.5573 222.657 32.375C222.654 32.1927 222.652 32.0316 222.652 31.8916C222.652 31.7842 222.594 31.6979 222.477 31.6328C222.359 31.5645 222.239 31.5156 222.115 31.4863C221.995 31.457 221.917 31.4424 221.881 31.4424L221.891 31.2715L221.954 31.208H224.674C225.286 31.208 225.777 31.3252 226.148 31.5596C226.52 31.7939 226.705 32.1439 226.705 32.6094C226.705 33.0684 226.607 33.446 226.412 33.7422C226.22 34.0352 225.961 34.2549 225.636 34.4014C225.313 34.5479 224.952 34.6439 224.552 34.6895ZM223.473 34.2988C223.473 34.3249 223.479 34.3574 223.492 34.3965C223.505 34.4323 223.528 34.4502 223.561 34.4502C223.928 34.4502 224.277 34.3932 224.605 34.2793C224.938 34.1654 225.206 33.9847 225.411 33.7373C225.619 33.4867 225.724 33.1644 225.724 32.7705C225.724 32.4515 225.637 32.2074 225.465 32.0381C225.296 31.8656 225.082 31.75 224.825 31.6914C224.571 31.6296 224.314 31.5986 224.054 31.5986H223.653C223.578 31.5986 223.538 31.6865 223.531 31.8623C223.525 31.9893 223.52 32.152 223.517 32.3506C223.513 32.5492 223.508 32.7591 223.502 32.9805C223.495 33.1986 223.491 33.4069 223.487 33.6055C223.484 33.8008 223.481 33.9619 223.478 34.0889C223.474 34.2158 223.473 34.2858 223.473 34.2988ZM229.342 31.75C229.335 31.916 229.273 32.0511 229.156 32.1553C229.039 32.2594 228.901 32.3115 228.741 32.3115C228.582 32.3115 228.445 32.2546 228.331 32.1406C228.217 32.0267 228.16 31.89 228.16 31.7305C228.16 31.5579 228.23 31.4212 228.37 31.3203C228.51 31.2194 228.653 31.1689 228.8 31.1689C228.972 31.1689 229.106 31.2275 229.2 31.3447C229.295 31.4619 229.342 31.597 229.342 31.75ZM229.2 34.0791L229.122 36.1787C229.122 36.5465 229.151 36.8346 229.21 37.043C229.272 37.248 229.389 37.3506 229.562 37.3506C229.754 37.3506 229.921 37.3066 230.064 37.2188C230.208 37.1276 230.346 37.0218 230.479 36.9014L230.611 36.999V37.1113C230.497 37.2578 230.366 37.4059 230.216 37.5557C230.066 37.7054 229.907 37.8307 229.737 37.9316C229.568 38.0293 229.389 38.0781 229.2 38.0781C229.06 38.0781 228.928 38.0537 228.805 38.0049C228.681 37.9561 228.582 37.8519 228.507 37.6924C228.435 37.5296 228.399 37.2855 228.399 36.96L228.463 34.748C228.463 34.4876 228.437 34.2809 228.385 34.1279C228.336 33.9749 228.245 33.8984 228.111 33.8984C228.004 33.8984 227.874 33.9342 227.721 34.0059C227.568 34.0742 227.431 34.1458 227.311 34.2207L227.184 34.04C227.411 33.861 227.652 33.6917 227.906 33.5322C228.163 33.3695 228.388 33.2881 228.58 33.2881C228.808 33.2881 228.967 33.3646 229.059 33.5176C229.153 33.6706 229.2 33.8577 229.2 34.0791ZM234.073 37.4824C233.813 37.6289 233.541 37.7705 233.258 37.9072C232.975 38.0439 232.677 38.1123 232.364 38.1123C232.091 38.1123 231.843 38.0309 231.622 37.8682C231.404 37.7021 231.231 37.4727 231.104 37.1797C230.978 36.8867 230.914 36.5465 230.914 36.1592C230.914 35.5667 231.015 35.0605 231.217 34.6406C231.422 34.2207 231.697 33.9017 232.042 33.6836C232.39 33.4622 232.778 33.3516 233.204 33.3516C233.409 33.3516 233.613 33.376 233.814 33.4248C234.02 33.4736 234.207 33.5615 234.376 33.6885L234.884 33.4004L235.025 33.459C235.012 33.6868 234.999 33.9131 234.986 34.1377C234.977 34.359 234.967 34.6064 234.957 34.8799C234.947 35.1533 234.941 35.4756 234.938 35.8467C234.934 36.2145 234.933 36.6589 234.933 37.1797C234.933 37.3717 234.921 37.6273 234.898 37.9463C234.876 38.262 234.814 38.5664 234.713 38.8594C234.632 39.0807 234.514 39.2728 234.361 39.4355C234.208 39.5983 234.083 39.7171 233.985 39.792C233.731 39.984 233.474 40.1208 233.214 40.2021C232.953 40.2868 232.67 40.3291 232.364 40.3291C232.143 40.3291 231.918 40.2917 231.69 40.2168C231.466 40.1452 231.23 39.9954 230.982 39.7676L231.476 39.1523H231.612C231.671 39.2728 231.757 39.39 231.871 39.5039C231.985 39.6211 232.107 39.7188 232.237 39.7969C232.368 39.8783 232.493 39.9189 232.613 39.9189C232.968 39.9189 233.256 39.8115 233.478 39.5967C233.702 39.3851 233.868 39.0986 233.976 38.7373C234.086 38.3792 234.15 37.9837 234.166 37.5508L234.073 37.4824ZM234.166 37.0088V34.3721C234.153 34.1377 234.054 33.9652 233.868 33.8545C233.686 33.7438 233.487 33.6885 233.272 33.6885C232.979 33.6885 232.735 33.7633 232.54 33.9131C232.348 34.0628 232.195 34.2565 232.081 34.4941C231.97 34.7318 231.891 34.9808 231.842 35.2412C231.796 35.5016 231.773 35.7441 231.773 35.9688C231.773 36.2682 231.834 36.5319 231.954 36.7598C232.075 36.9876 232.223 37.165 232.398 37.292C232.574 37.4189 232.747 37.4824 232.916 37.4824C233.069 37.4824 233.227 37.4564 233.39 37.4043C233.552 37.349 233.704 37.2839 233.844 37.209C233.984 37.1341 234.091 37.0674 234.166 37.0088ZM241.51 36.9307L241.642 37.0283V37.1406C241.42 37.375 241.178 37.5931 240.914 37.7949C240.654 37.9967 240.372 38.0977 240.069 38.0977C239.835 38.0977 239.666 37.9951 239.562 37.79C239.461 37.585 239.41 37.3587 239.41 37.1113C239.41 36.9323 239.413 36.7272 239.42 36.4961C239.426 36.265 239.433 36.0452 239.439 35.8369C239.446 35.6253 239.449 35.4593 239.449 35.3389C239.449 35.085 239.43 34.8538 239.391 34.6455C239.352 34.4339 239.27 34.2679 239.146 34.1475C239.023 34.0238 238.837 33.9619 238.59 33.9619C238.316 33.9619 238.059 34.027 237.818 34.1572C237.581 34.2842 237.364 34.4176 237.169 34.5576C237.169 35.1045 237.166 35.653 237.159 36.2031C237.153 36.7533 237.149 37.2985 237.149 37.8389L236.432 38.0586L236.373 37.9609C236.406 37.3001 236.435 36.641 236.461 35.9834C236.487 35.3226 236.503 34.6618 236.51 34.001C236.51 33.4932 236.51 33.0521 236.51 32.6777C236.51 32.3001 236.443 32.0202 236.31 31.8379C236.264 31.7793 236.158 31.7288 235.992 31.6865C235.826 31.641 235.676 31.6051 235.543 31.5791V31.3984L235.592 31.3594L237.169 31.1885L237.232 31.2617C237.213 31.6882 237.201 32.1406 237.198 32.6191C237.195 33.0944 237.193 33.5615 237.193 34.0205L237.271 34.0986C237.564 33.9196 237.88 33.7487 238.219 33.5859C238.561 33.4232 238.915 33.3418 239.283 33.3418C239.358 33.3418 239.461 33.3646 239.591 33.4102C239.724 33.4557 239.838 33.5257 239.933 33.6201C240.086 33.7601 240.164 33.9928 240.167 34.3184C240.17 34.6406 240.172 35.002 240.172 35.4023V36.1396C240.172 36.2406 240.17 36.361 240.167 36.501C240.164 36.641 240.172 36.7777 240.191 36.9111C240.211 37.0446 240.252 37.1569 240.313 37.248C240.379 37.3359 240.478 37.3799 240.611 37.3799C240.803 37.3799 240.978 37.3278 241.134 37.2236C241.29 37.1162 241.415 37.0186 241.51 36.9307ZM242.75 32.1797L243.59 31.8916L243.658 31.9404C243.632 32.2269 243.609 32.502 243.59 32.7656C243.57 33.0293 243.557 33.3076 243.551 33.6006L243.609 33.6494H244.889L244.938 33.6885L244.859 33.9521L244.801 34.001H243.609L243.551 34.0596V35.9492C243.551 36.1836 243.565 36.418 243.595 36.6523C243.624 36.8835 243.691 37.0739 243.795 37.2236C243.899 37.3734 244.054 37.4482 244.259 37.4482C244.386 37.4482 244.532 37.4043 244.698 37.3164C244.864 37.2253 245.021 37.1325 245.167 37.0381L245.289 37.0576L245.357 37.209C245.13 37.4238 244.872 37.624 244.586 37.8096C244.303 37.9951 244.013 38.0879 243.717 38.0879C243.603 38.0879 243.478 38.0667 243.341 38.0244C243.207 37.9821 243.093 37.9007 242.999 37.7803C242.934 37.6859 242.883 37.5866 242.848 37.4824C242.815 37.375 242.794 37.2074 242.784 36.9795C242.774 36.7516 242.77 36.4147 242.77 35.9688V34.0693L242.711 34.001H241.588L241.539 33.9521L241.607 33.708L241.671 33.6494H242.711L242.77 33.5908C242.77 33.3369 242.77 33.07 242.77 32.79C242.77 32.5101 242.763 32.3066 242.75 32.1797ZM251.466 34.6895L251.446 34.7676L254.078 37.7314V37.8193L253.087 38.0781C252.853 37.7786 252.605 37.4645 252.345 37.1357C252.088 36.8037 251.84 36.4863 251.603 36.1836C251.365 35.8809 251.157 35.6221 250.978 35.4072C250.799 35.1891 250.672 35.0426 250.597 34.9678C250.538 34.9092 250.471 34.8799 250.396 34.8799C250.396 35.3584 250.398 35.8402 250.401 36.3252C250.405 36.807 250.419 37.2887 250.445 37.7705L249.615 38.0586L249.508 37.9707C249.547 37.2448 249.571 36.5189 249.581 35.793C249.591 35.0638 249.596 34.3363 249.596 33.6104C249.596 33.5713 249.594 33.4883 249.591 33.3613C249.588 33.2344 249.584 33.0846 249.581 32.9121C249.578 32.7363 249.575 32.5573 249.571 32.375C249.568 32.1927 249.566 32.0316 249.566 31.8916C249.566 31.7842 249.508 31.6979 249.391 31.6328C249.273 31.5645 249.153 31.5156 249.029 31.4863C248.909 31.457 248.831 31.4424 248.795 31.4424L248.805 31.2715L248.868 31.208H251.588C252.2 31.208 252.691 31.3252 253.062 31.5596C253.434 31.7939 253.619 32.1439 253.619 32.6094C253.619 33.0684 253.521 33.446 253.326 33.7422C253.134 34.0352 252.875 34.2549 252.55 34.4014C252.228 34.5479 251.866 34.6439 251.466 34.6895ZM250.387 34.2988C250.387 34.3249 250.393 34.3574 250.406 34.3965C250.419 34.4323 250.442 34.4502 250.475 34.4502C250.842 34.4502 251.191 34.3932 251.52 34.2793C251.852 34.1654 252.12 33.9847 252.325 33.7373C252.534 33.4867 252.638 33.1644 252.638 32.7705C252.638 32.4515 252.551 32.2074 252.379 32.0381C252.21 31.8656 251.996 31.75 251.739 31.6914C251.485 31.6296 251.228 31.5986 250.968 31.5986H250.567C250.493 31.5986 250.452 31.6865 250.445 31.8623C250.439 31.9893 250.434 32.152 250.431 32.3506C250.427 32.5492 250.423 32.7591 250.416 32.9805C250.41 33.1986 250.405 33.4069 250.401 33.6055C250.398 33.8008 250.395 33.9619 250.392 34.0889C250.388 34.2158 250.387 34.2858 250.387 34.2988ZM258.365 34.8115L255.543 36.0322C255.562 36.2373 255.618 36.4505 255.709 36.6719C255.8 36.89 255.937 37.0723 256.119 37.2188C256.305 37.3652 256.544 37.4385 256.837 37.4385C257.11 37.4385 257.377 37.3685 257.638 37.2285C257.901 37.0885 258.147 36.9323 258.375 36.7598L258.487 36.7793L258.614 36.96C258.409 37.152 258.185 37.3376 257.94 37.5166C257.696 37.6924 257.439 37.8372 257.169 37.9512C256.899 38.0651 256.62 38.1221 256.334 38.1221C256.002 38.1221 255.727 38.0521 255.509 37.9121C255.294 37.7721 255.126 37.5866 255.006 37.3555C254.885 37.1243 254.799 36.8672 254.747 36.584C254.698 36.3008 254.674 36.0192 254.674 35.7393C254.674 35.4463 254.71 35.1598 254.781 34.8799C254.856 34.5999 254.991 34.346 255.187 34.1182C255.434 33.8317 255.729 33.6104 256.07 33.4541C256.412 33.2979 256.773 33.2197 257.154 33.2197C257.587 33.2197 257.932 33.3532 258.189 33.6201C258.447 33.887 258.575 34.2142 258.575 34.6016C258.575 34.6602 258.552 34.7041 258.507 34.7334C258.465 34.7594 258.417 34.7855 258.365 34.8115ZM255.963 34.04C255.771 34.2451 255.646 34.4616 255.587 34.6895C255.532 34.9173 255.504 35.1549 255.504 35.4023C255.504 35.4284 255.506 35.4561 255.509 35.4854C255.512 35.5146 255.517 35.5456 255.523 35.5781L255.567 35.6221L257.584 34.8213C257.617 34.8083 257.646 34.7822 257.672 34.7432C257.701 34.7008 257.716 34.639 257.716 34.5576C257.716 34.4176 257.678 34.2744 257.604 34.1279C257.532 33.9814 257.428 33.861 257.291 33.7666C257.154 33.6689 256.993 33.6201 256.808 33.6201C256.642 33.6201 256.485 33.6576 256.339 33.7324C256.196 33.804 256.07 33.9066 255.963 34.04ZM262.232 34.1719L261.686 34.5381L261.563 34.4697C261.55 34.2484 261.495 34.0628 261.397 33.9131C261.303 33.7633 261.142 33.6885 260.914 33.6885C260.68 33.6885 260.484 33.7666 260.328 33.9229C260.172 34.0758 260.094 34.2679 260.094 34.499C260.094 34.6976 260.185 34.8701 260.367 35.0166C260.553 35.1598 260.828 35.3079 261.192 35.4609C261.58 35.627 261.868 35.8044 262.057 35.9932C262.249 36.1787 262.345 36.387 262.345 36.6182C262.345 36.9567 262.249 37.2415 262.057 37.4727C261.868 37.7038 261.629 37.8779 261.339 37.9951C261.049 38.1123 260.758 38.1709 260.465 38.1709C260.165 38.1709 259.887 38.1107 259.63 37.9902C259.373 37.8698 259.161 37.6533 258.995 37.3408L259.483 36.6279L259.625 36.6377C259.645 36.9437 259.76 37.2122 259.972 37.4434C260.187 37.6745 260.45 37.79 260.763 37.79C260.978 37.79 261.173 37.7152 261.349 37.5654C261.524 37.4157 261.612 37.2367 261.612 37.0283C261.612 36.8558 261.562 36.7093 261.461 36.5889C261.363 36.4684 261.24 36.3659 261.09 36.2812C260.94 36.1934 260.785 36.1169 260.626 36.0518C260.421 35.9639 260.221 35.863 260.025 35.749C259.83 35.6351 259.672 35.4984 259.552 35.3389C259.435 35.1794 259.376 34.9889 259.376 34.7676C259.376 34.4681 259.462 34.2126 259.635 34.001C259.807 33.7861 260.027 33.6234 260.294 33.5127C260.561 33.3988 260.831 33.3418 261.104 33.3418C261.277 33.3418 261.448 33.3678 261.617 33.4199C261.79 33.472 261.933 33.5599 262.047 33.6836C262.164 33.804 262.226 33.9668 262.232 34.1719ZM266.773 34.8115L263.951 36.0322C263.971 36.2373 264.026 36.4505 264.117 36.6719C264.208 36.89 264.345 37.0723 264.527 37.2188C264.713 37.3652 264.952 37.4385 265.245 37.4385C265.519 37.4385 265.785 37.3685 266.046 37.2285C266.31 37.0885 266.555 36.9323 266.783 36.7598L266.896 36.7793L267.022 36.96C266.817 37.152 266.593 37.3376 266.349 37.5166C266.104 37.6924 265.847 37.8372 265.577 37.9512C265.307 38.0651 265.029 38.1221 264.742 38.1221C264.41 38.1221 264.135 38.0521 263.917 37.9121C263.702 37.7721 263.535 37.5866 263.414 37.3555C263.294 37.1243 263.207 36.8672 263.155 36.584C263.106 36.3008 263.082 36.0192 263.082 35.7393C263.082 35.4463 263.118 35.1598 263.189 34.8799C263.264 34.5999 263.399 34.346 263.595 34.1182C263.842 33.8317 264.137 33.6104 264.479 33.4541C264.82 33.2979 265.182 33.2197 265.562 33.2197C265.995 33.2197 266.34 33.3532 266.598 33.6201C266.855 33.887 266.983 34.2142 266.983 34.6016C266.983 34.6602 266.961 34.7041 266.915 34.7334C266.873 34.7594 266.826 34.7855 266.773 34.8115ZM264.371 34.04C264.179 34.2451 264.054 34.4616 263.995 34.6895C263.94 34.9173 263.912 35.1549 263.912 35.4023C263.912 35.4284 263.914 35.4561 263.917 35.4854C263.92 35.5146 263.925 35.5456 263.932 35.5781L263.976 35.6221L265.992 34.8213C266.025 34.8083 266.054 34.7822 266.08 34.7432C266.109 34.7008 266.124 34.639 266.124 34.5576C266.124 34.4176 266.087 34.2744 266.012 34.1279C265.94 33.9814 265.836 33.861 265.699 33.7666C265.562 33.6689 265.401 33.6201 265.216 33.6201C265.05 33.6201 264.894 33.6576 264.747 33.7324C264.604 33.804 264.479 33.9066 264.371 34.04ZM270.743 34.6113L270.621 34.5576C270.595 34.4176 270.541 34.2874 270.46 34.167C270.382 34.0433 270.26 33.9814 270.094 33.9814C269.889 33.9814 269.721 34.0514 269.591 34.1914C269.464 34.3314 269.374 34.4681 269.322 34.6016C269.277 34.709 269.251 34.862 269.244 35.0605C269.238 35.2591 269.238 35.4707 269.244 35.6953C269.251 35.9199 269.254 36.1217 269.254 36.3008C269.254 36.8021 269.264 37.3083 269.283 37.8193L268.585 38.0293L268.434 37.9414C268.466 37.5866 268.494 37.2025 268.517 36.7891C268.539 36.3757 268.551 35.9688 268.551 35.5684C268.551 35.3079 268.548 35.0492 268.541 34.792C268.535 34.5316 268.5 34.3151 268.438 34.1426C268.38 33.9668 268.274 33.8789 268.121 33.8789C268.007 33.8789 267.88 33.9131 267.74 33.9814C267.6 34.0465 267.468 34.1165 267.345 34.1914L267.223 34.0205C267.356 33.9131 267.501 33.8024 267.657 33.6885C267.813 33.5745 267.971 33.4769 268.131 33.3955C268.294 33.3109 268.44 33.2686 268.57 33.2686C268.798 33.2686 268.969 33.3353 269.083 33.4688C269.197 33.6022 269.267 33.7764 269.293 33.9912L269.391 34.0303C269.492 33.9359 269.604 33.835 269.728 33.7275C269.851 33.6169 269.98 33.5241 270.113 33.4492C270.247 33.3711 270.374 33.332 270.494 33.332C270.966 33.332 271.228 33.5941 271.28 34.1182L270.743 34.6113ZM275.514 33.4004C275.533 33.3874 275.559 33.3809 275.592 33.3809C275.686 33.3809 275.785 33.4753 275.89 33.6641C275.997 33.8496 276.051 34.0889 276.051 34.3818C276.051 34.6553 275.994 34.9173 275.88 35.168C275.769 35.4154 275.644 35.653 275.504 35.8809C275.276 36.2422 275.027 36.5824 274.757 36.9014C274.487 37.2204 274.205 37.5296 273.912 37.8291C273.86 37.8812 273.803 37.9382 273.741 38C273.683 38.0586 273.64 38.096 273.614 38.1123H273.375L272.682 35.5293C272.607 35.2428 272.529 34.9792 272.447 34.7383C272.366 34.4941 272.281 34.2972 272.193 34.1475C272.105 33.9945 272.008 33.918 271.9 33.918C271.793 33.918 271.689 33.9375 271.588 33.9766C271.49 34.0124 271.384 34.0628 271.271 34.1279L271.183 33.8887C271.362 33.7617 271.567 33.6331 271.798 33.5029C272.029 33.3727 272.241 33.3076 272.433 33.3076C272.605 33.3076 272.742 33.3809 272.843 33.5273C272.944 33.6706 273.032 33.874 273.106 34.1377C273.185 34.3981 273.271 34.709 273.365 35.0703C273.404 35.2168 273.45 35.4089 273.502 35.6465C273.557 35.8809 273.616 36.1152 273.678 36.3496C273.74 36.584 273.801 36.7809 273.863 36.9404C273.928 37.0999 273.989 37.1797 274.044 37.1797C274.07 37.1797 274.106 37.1536 274.151 37.1016C274.2 37.0462 274.244 36.999 274.283 36.96C274.449 36.7614 274.614 36.5465 274.776 36.3154C274.939 36.0843 275.076 35.8467 275.187 35.6025C275.297 35.3551 275.353 35.1143 275.353 34.8799C275.353 34.7204 275.312 34.5544 275.23 34.3818C275.152 34.2061 275.069 34.0384 274.981 33.8789C274.975 33.8724 274.972 33.8561 274.972 33.8301C274.972 33.804 274.985 33.778 275.011 33.752L275.514 33.4004ZM280.484 34.8115L277.662 36.0322C277.682 36.2373 277.737 36.4505 277.828 36.6719C277.919 36.89 278.056 37.0723 278.238 37.2188C278.424 37.3652 278.663 37.4385 278.956 37.4385C279.229 37.4385 279.496 37.3685 279.757 37.2285C280.021 37.0885 280.266 36.9323 280.494 36.7598L280.606 36.7793L280.733 36.96C280.528 37.152 280.304 37.3376 280.06 37.5166C279.815 37.6924 279.558 37.8372 279.288 37.9512C279.018 38.0651 278.74 38.1221 278.453 38.1221C278.121 38.1221 277.846 38.0521 277.628 37.9121C277.413 37.7721 277.245 37.5866 277.125 37.3555C277.005 37.1243 276.918 36.8672 276.866 36.584C276.817 36.3008 276.793 36.0192 276.793 35.7393C276.793 35.4463 276.829 35.1598 276.9 34.8799C276.975 34.5999 277.11 34.346 277.306 34.1182C277.553 33.8317 277.848 33.6104 278.189 33.4541C278.531 33.2979 278.893 33.2197 279.273 33.2197C279.706 33.2197 280.051 33.3532 280.309 33.6201C280.566 33.887 280.694 34.2142 280.694 34.6016C280.694 34.6602 280.672 34.7041 280.626 34.7334C280.584 34.7594 280.536 34.7855 280.484 34.8115ZM278.082 34.04C277.89 34.2451 277.765 34.4616 277.706 34.6895C277.651 34.9173 277.623 35.1549 277.623 35.4023C277.623 35.4284 277.625 35.4561 277.628 35.4854C277.631 35.5146 277.636 35.5456 277.643 35.5781L277.687 35.6221L279.703 34.8213C279.736 34.8083 279.765 34.7822 279.791 34.7432C279.82 34.7008 279.835 34.639 279.835 34.5576C279.835 34.4176 279.798 34.2744 279.723 34.1279C279.651 33.9814 279.547 33.861 279.41 33.7666C279.273 33.6689 279.112 33.6201 278.927 33.6201C278.761 33.6201 278.604 33.6576 278.458 33.7324C278.315 33.804 278.189 33.9066 278.082 34.04ZM283.614 31.3984L283.663 31.3594L285.294 31.1592L285.372 31.252V36.9014C285.385 37.0479 285.414 37.1878 285.46 37.3213C285.509 37.4548 285.606 37.5215 285.753 37.5215C285.805 37.5215 285.895 37.5003 286.021 37.458C286.148 37.4124 286.262 37.3701 286.363 37.3311L286.441 37.5605C286.249 37.694 286.035 37.8324 285.797 37.9756C285.562 38.1188 285.348 38.1904 285.152 38.1904C284.96 38.1904 284.817 38.1123 284.723 37.9561C284.632 37.7998 284.578 37.6338 284.562 37.458C284.308 37.6305 284.028 37.7949 283.722 37.9512C283.416 38.1042 283.116 38.1807 282.823 38.1807C282.537 38.1807 282.298 38.1204 282.105 38C281.917 37.8796 281.765 37.7217 281.651 37.5264C281.541 37.3278 281.459 37.113 281.407 36.8818C281.358 36.6475 281.334 36.4196 281.334 36.1982C281.334 35.8434 281.381 35.5 281.476 35.168C281.573 34.8359 281.718 34.5348 281.91 34.2646C282.105 33.9945 282.351 33.7796 282.647 33.6201C282.944 33.4606 283.295 33.3809 283.702 33.3809C283.849 33.3809 283.99 33.3939 284.127 33.4199C284.264 33.446 284.399 33.4834 284.532 33.5322L284.605 33.4883C284.605 33.3092 284.604 33.1204 284.601 32.9219C284.597 32.7201 284.591 32.5345 284.581 32.3652C284.575 32.196 284.558 32.0674 284.532 31.9795C284.5 31.859 284.431 31.7744 284.327 31.7256C284.226 31.6768 284.112 31.6475 283.985 31.6377C283.858 31.6247 283.738 31.6182 283.624 31.6182L283.614 31.3984ZM284.562 37.0479L284.605 34.8994C284.605 34.7204 284.584 34.5397 284.542 34.3574C284.503 34.1719 284.417 34.0189 284.283 33.8984C284.15 33.778 283.943 33.7178 283.663 33.7178C283.383 33.7178 283.149 33.791 282.96 33.9375C282.774 34.0807 282.625 34.2663 282.511 34.4941C282.4 34.7188 282.32 34.9629 282.271 35.2266C282.226 35.4902 282.203 35.7376 282.203 35.9688C282.203 36.2031 282.239 36.4408 282.311 36.6816C282.385 36.9193 282.507 37.1195 282.677 37.2822C282.849 37.4417 283.085 37.5215 283.385 37.5215C283.557 37.5215 283.762 37.4759 284 37.3848C284.241 37.2936 284.428 37.1813 284.562 37.0479ZM286.891 33.6299C286.891 33.2555 286.961 32.904 287.101 32.5752C287.241 32.2464 287.434 31.9583 287.682 31.7109C287.929 31.4635 288.217 31.2699 288.546 31.1299C288.875 30.9899 289.226 30.9199 289.601 30.9199C289.975 30.9199 290.326 30.9899 290.655 31.1299C290.987 31.2699 291.275 31.4635 291.52 31.7109C291.767 31.9583 291.961 32.2464 292.101 32.5752C292.241 32.904 292.311 33.2555 292.311 33.6299C292.311 34.0042 292.241 34.3558 292.101 34.6846C291.961 35.0133 291.767 35.3014 291.52 35.5488C291.275 35.7962 290.987 35.9899 290.655 36.1299C290.326 36.2699 289.975 36.3398 289.601 36.3398C289.226 36.3398 288.875 36.2699 288.546 36.1299C288.217 35.9899 287.929 35.7962 287.682 35.5488C287.434 35.3014 287.241 35.0133 287.101 34.6846C286.961 34.3558 286.891 34.0042 286.891 33.6299ZM287.14 33.6299C287.14 34.0824 287.25 34.4958 287.472 34.8701C287.693 35.2445 287.989 35.5423 288.36 35.7637C288.735 35.9818 289.148 36.0908 289.601 36.0908C290.053 36.0908 290.466 35.9818 290.841 35.7637C291.215 35.5423 291.511 35.2445 291.729 34.8701C291.951 34.4958 292.062 34.0824 292.062 33.6299C292.062 33.1774 291.951 32.764 291.729 32.3896C291.511 32.0153 291.215 31.7191 290.841 31.501C290.466 31.2796 290.053 31.1689 289.601 31.1689C289.148 31.1689 288.735 31.2796 288.36 31.501C287.989 31.7191 287.693 32.0153 287.472 32.3896C287.25 32.764 287.14 33.1774 287.14 33.6299ZM290.934 32.6582H290.851C290.75 32.4303 290.606 32.266 290.421 32.165C290.235 32.0609 290.019 32.0088 289.771 32.0088C289.592 32.0088 289.413 32.0365 289.234 32.0918C289.059 32.1439 288.904 32.2269 288.771 32.3408C288.591 32.4938 288.468 32.6842 288.399 32.9121C288.334 33.1367 288.302 33.3597 288.302 33.5811C288.302 33.8089 288.357 34.0335 288.468 34.2549C288.578 34.473 288.683 34.6211 288.78 34.6992C288.946 34.8392 289.106 34.945 289.259 35.0166C289.415 35.085 289.615 35.1191 289.859 35.1191C290.064 35.1191 290.261 35.0866 290.45 35.0215C290.639 34.9531 290.816 34.8734 290.982 34.7822L291.08 34.9189C290.865 35.0394 290.637 35.1468 290.396 35.2412C290.159 35.3324 289.91 35.3779 289.649 35.3779C289.409 35.3779 289.173 35.3503 288.941 35.2949C288.714 35.2396 288.513 35.1419 288.341 35.002C288.136 34.8294 287.988 34.626 287.896 34.3916C287.805 34.1572 287.76 33.9163 287.76 33.6689C287.76 33.4281 287.799 33.1921 287.877 32.9609C287.958 32.7266 288.103 32.5231 288.312 32.3506C288.533 32.1715 288.788 32.0365 289.078 31.9453C289.368 31.8542 289.669 31.8086 289.981 31.8086C290.242 31.8086 290.483 31.8493 290.704 31.9307C290.929 32.0088 291.118 32.1553 291.271 32.3701L290.934 32.6582ZM297.481 37.1992L297.252 37.9805H292.882V37.8193C293.168 37.5264 293.45 37.2318 293.727 36.9355C294.003 36.6393 294.275 36.3382 294.542 36.0322C294.802 35.7262 295.05 35.4105 295.284 35.085C295.522 34.7562 295.717 34.4111 295.87 34.0498C296.023 33.6885 296.1 33.3125 296.1 32.9219C296.1 32.7493 296.064 32.5589 295.992 32.3506C295.924 32.1423 295.808 31.9648 295.646 31.8184C295.483 31.6719 295.258 31.5986 294.972 31.5986C294.698 31.5986 294.449 31.6654 294.225 31.7988C294 31.9323 293.792 32.0788 293.6 32.2383L293.399 32.0479C293.673 31.7484 293.987 31.4863 294.342 31.2617C294.7 31.0339 295.089 30.9199 295.509 30.9199C295.802 30.9199 296.062 30.9883 296.29 31.125C296.518 31.2617 296.695 31.4473 296.822 31.6816C296.952 31.9128 297.018 32.1748 297.018 32.4678C297.018 32.7347 296.97 32.9902 296.876 33.2344C296.785 33.4785 296.673 33.7178 296.539 33.9521C296.246 34.486 295.893 35.0068 295.479 35.5146C295.066 36.0192 294.649 36.5173 294.229 37.0088C294.216 37.0218 294.21 37.0348 294.21 37.0479C294.21 37.0739 294.225 37.0934 294.254 37.1064C294.283 37.1162 294.312 37.1211 294.342 37.1211H297.428L297.481 37.1992ZM300.66 30.959C301.067 31.2129 301.393 31.5286 301.637 31.9062C301.884 32.2806 302.066 32.6859 302.184 33.1221C302.301 33.555 302.359 33.9945 302.359 34.4404C302.359 34.8408 302.312 35.2559 302.218 35.6855C302.127 36.1152 301.982 36.5156 301.783 36.8867C301.588 37.2546 301.327 37.5557 301.002 37.79C300.68 38.0244 300.289 38.1416 299.83 38.1416C299.544 38.1416 299.298 38.07 299.093 37.9268C298.891 37.7835 298.725 37.5931 298.595 37.3555C298.465 37.1178 298.362 36.859 298.287 36.5791C298.215 36.2992 298.167 36.0176 298.141 35.7344C298.115 35.4512 298.102 35.1956 298.102 34.9678C298.102 34.3688 298.211 33.7829 298.429 33.21C298.65 32.637 298.974 32.1374 299.4 31.7109C299.566 31.5449 299.762 31.4001 299.986 31.2764C300.214 31.1527 300.439 31.0469 300.66 30.959ZM300.099 31.5986C299.806 31.7777 299.56 32.0153 299.361 32.3115C299.166 32.6045 299.018 32.9235 298.917 33.2686C298.819 33.6104 298.771 33.9505 298.771 34.2891C298.771 34.5755 298.785 34.8652 298.814 35.1582C298.844 35.4512 298.899 35.7344 298.98 36.0078C299.046 36.2357 299.14 36.4635 299.264 36.6914C299.387 36.916 299.534 37.1048 299.703 37.2578C299.876 37.4076 300.068 37.4824 300.279 37.4824C300.585 37.4824 300.833 37.4076 301.021 37.2578C301.214 37.1048 301.362 36.9111 301.466 36.6768C301.57 36.4391 301.642 36.1852 301.681 35.915C301.72 35.6449 301.739 35.3893 301.739 35.1484C301.739 34.696 301.681 34.2581 301.563 33.835C301.446 33.4118 301.279 33.0033 301.061 32.6094C301.041 32.5703 300.982 32.4808 300.885 32.3408C300.787 32.2008 300.67 32.0576 300.533 31.9111C300.396 31.7614 300.252 31.6572 300.099 31.5986ZM307.481 37.1992L307.252 37.9805H302.882V37.8193C303.168 37.5264 303.45 37.2318 303.727 36.9355C304.003 36.6393 304.275 36.3382 304.542 36.0322C304.802 35.7262 305.05 35.4105 305.284 35.085C305.522 34.7562 305.717 34.4111 305.87 34.0498C306.023 33.6885 306.1 33.3125 306.1 32.9219C306.1 32.7493 306.064 32.5589 305.992 32.3506C305.924 32.1423 305.808 31.9648 305.646 31.8184C305.483 31.6719 305.258 31.5986 304.972 31.5986C304.698 31.5986 304.449 31.6654 304.225 31.7988C304 31.9323 303.792 32.0788 303.6 32.2383L303.399 32.0479C303.673 31.7484 303.987 31.4863 304.342 31.2617C304.7 31.0339 305.089 30.9199 305.509 30.9199C305.802 30.9199 306.062 30.9883 306.29 31.125C306.518 31.2617 306.695 31.4473 306.822 31.6816C306.952 31.9128 307.018 32.1748 307.018 32.4678C307.018 32.7347 306.97 32.9902 306.876 33.2344C306.785 33.4785 306.673 33.7178 306.539 33.9521C306.246 34.486 305.893 35.0068 305.479 35.5146C305.066 36.0192 304.649 36.5173 304.229 37.0088C304.216 37.0218 304.21 37.0348 304.21 37.0479C304.21 37.0739 304.225 37.0934 304.254 37.1064C304.283 37.1162 304.312 37.1211 304.342 37.1211H307.428L307.481 37.1992ZM310.841 30.8809L310.899 30.998C310.873 31.444 310.855 31.8916 310.846 32.3408C310.836 32.7868 310.831 33.2327 310.831 33.6787C310.831 34.0173 310.831 34.3851 310.831 34.7822C310.831 35.1794 310.833 35.57 310.836 35.9541C310.839 36.3382 310.842 36.6914 310.846 37.0137C310.849 37.3327 310.854 37.5882 310.86 37.7803L310.021 38.0488L309.898 38C309.924 37.3066 309.944 36.61 309.957 35.9102C309.973 35.2103 309.981 34.5104 309.981 33.8105C309.981 33.4362 309.985 33.1042 309.991 32.8145C309.998 32.5247 309.97 32.2969 309.908 32.1309C309.85 31.9648 309.716 31.8818 309.508 31.8818H308.678V31.6084L310.841 30.8809Z" fill="#2BB7FF"/>
<defs>
<filter id="filter0_d" x="50.4401" y="5.20001" width="52.1497" height="25.04" filterUnits="userSpaceOnUse" color-interpolation-filters="sRGB">
<feFlood flood-opacity="0" result="BackgroundImageFix"/>
<feColorMatrix in="SourceAlpha" type="matrix" values="0 0 0 0 0 0 0 0 0 0 0 0 0 0 0 0 0 0 127 0" result="hardAlpha"/>
<feOffset dy="4"/>
<feGaussianBlur stdDeviation="2"/>
<feColorMatrix type="matrix" values="0 0 0 0 0 0 0 0 0 0 0 0 0 0 0 0 0 0 0.25 0"/>
<feBlend mode="normal" in2="BackgroundImageFix" result="effect1_dropShadow"/>
<feBlend mode="normal" in="SourceGraphic" in2="effect1_dropShadow" result="shape"/>
</filter>
<filter id="filter1_d" x="33.44" y="25.5922" width="130.245" height="25.04" filterUnits="userSpaceOnUse" color-interpolation-filters="sRGB">
<feFlood flood-opacity="0" result="BackgroundImageFix"/>
<feColorMatrix in="SourceAlpha" type="matrix" values="0 0 0 0 0 0 0 0 0 0 0 0 0 0 0 0 0 0 127 0" result="hardAlpha"/>
<feOffset dy="4"/>
<feGaussianBlur stdDeviation="2"/>
<feColorMatrix type="matrix" values="0 0 0 0 0 0 0 0 0 0 0 0 0 0 0 0 0 0 0.25 0"/>
<feBlend mode="normal" in2="BackgroundImageFix" result="effect1_dropShadow"/>
<feBlend mode="normal" in="SourceGraphic" in2="effect1_dropShadow" result="shape"/>
</filter>
<filter id="filter2_d" x="122" y="6.11768" width="14.809" height="14.6276" filterUnits="userSpaceOnUse" color-interpolation-filters="sRGB">
<feFlood flood-opacity="0" result="BackgroundImageFix"/>
<feColorMatrix in="SourceAlpha" type="matrix" values="0 0 0 0 0 0 0 0 0 0 0 0 0 0 0 0 0 0 127 0" result="hardAlpha"/>
<feOffset dy="4"/>
<feGaussianBlur stdDeviation="2"/>
<feColorMatrix type="matrix" values="0 0 0 0 0 0 0 0 0 0 0 0 0 0 0 0 0 0 0.25 0"/>
<feBlend mode="normal" in2="BackgroundImageFix" result="effect1_dropShadow"/>
<feBlend mode="normal" in="SourceGraphic" in2="effect1_dropShadow" result="shape"/>
</filter>
<filter id="filter3_d" x="118" y="3.05884" width="22" height="28.3937" filterUnits="userSpaceOnUse" color-interpolation-filters="sRGB">
<feFlood flood-opacity="0" result="BackgroundImageFix"/>
<feColorMatrix in="SourceAlpha" type="matrix" values="0 0 0 0 0 0 0 0 0 0 0 0 0 0 0 0 0 0 127 0" result="hardAlpha"/>
<feOffset dy="4"/>
<feGaussianBlur stdDeviation="2"/>
<feColorMatrix type="matrix" values="0 0 0 0 0 0 0 0 0 0 0 0 0 0 0 0 0 0 0.25 0"/>
<feBlend mode="normal" in2="BackgroundImageFix" result="effect1_dropShadow"/>
<feBlend mode="normal" in="SourceGraphic" in2="effect1_dropShadow" result="shape"/>
</filter>
</defs>
</svg>
