<svg width="179" height="109" viewBox="0 0 179 109" fill="none" xmlns="http://www.w3.org/2000/svg">
<rect width="9.71306" height="108.587" rx="0.5" fill="#2BB7FF"/>
<line y1="69.7283" x2="9.71306" y2="69.7283" stroke="#2BB7FF" stroke-width="0.5"/>
<line y1="74.2705" x2="9.71306" y2="74.2705" stroke="#2BB7FF" stroke-width="0.5"/>
<line y1="93.8588" x2="9.71306" y2="93.8588" stroke="#163964" stroke-width="0.5"/>
<line y1="50.5659" x2="9.71306" y2="50.5659" stroke="white" stroke-width="0.5"/>
<path d="M156 45C171.334 64.488 179 78.3536 179 86.6C179 89.5416 178.405 92.4544 177.249 95.1721C176.093 97.8898 174.399 100.359 172.263 102.439C170.128 104.519 167.592 106.169 164.802 107.295C162.011 108.421 159.02 109 156 109C152.98 109 149.989 108.421 147.198 107.295C144.408 106.169 141.872 104.519 139.737 102.439C137.601 100.359 135.907 97.8898 134.751 95.1721C133.595 92.4544 133 89.5416 133 86.6C133 78.3536 140.666 64.488 156 45Z" fill="#2BB7FF"/>
<ellipse cx="147.671" cy="91.4372" rx="7.33555" ry="7.14419" fill="white"/>
<path d="M25.8 81.04C28.904 80.4 31.624 80.08 33.96 80.08H36.12C38.296 80.08 40.04 80.736 41.352 82.048C42.664 83.36 43.32 85.104 43.32 87.28V106H34.92V88.24C34.92 87.76 34.76 87.36 34.44 87.04C34.12 86.72 33.72 86.56 33.24 86.56H31.56C30.344 86.56 29.224 86.624 28.2 86.752C27.208 86.88 26.408 86.976 25.8 87.04V106H17.4V72.4H25.8V81.04ZM64.6744 88.24C64.6744 87.76 64.5144 87.36 64.1944 87.04C63.8744 86.72 63.4744 86.56 62.9944 86.56H61.7944C60.4504 86.56 59.2824 86.624 58.2904 86.752C57.3304 86.88 56.5784 86.976 56.0344 87.04V99.52H62.7544C64.0344 99.52 64.6744 98.88 64.6744 97.6V88.24ZM56.0344 81.04C59.1384 80.4 61.8584 80.08 64.1944 80.08H65.8744C68.0504 80.08 69.7944 80.736 71.1064 82.048C72.4184 83.36 73.0744 85.104 73.0744 87.28V98.32C73.0744 100.72 72.3864 102.608 71.0104 103.984C69.6664 105.328 67.7944 106 65.3944 106H47.6344V72.4H56.0344V81.04ZM87.48 99.76C89.176 99.76 91.096 99.44 93.24 98.8V95.92H86.28C85.8 95.92 85.4 96.08 85.08 96.4C84.76 96.72 84.6 97.12 84.6 97.6V98.08C84.6 98.56 84.76 98.96 85.08 99.28C85.4 99.6 85.8 99.76 86.28 99.76H87.48ZM78.6 81.04C84.456 80.4 89.736 80.08 94.44 80.08C96.616 80.08 98.36 80.736 99.672 82.048C100.984 83.36 101.64 85.104 101.64 87.28V106H94.2L93.72 103.6C92.216 104.592 90.664 105.328 89.064 105.808C87.496 106.256 86.168 106.48 85.08 106.48H83.4C81.224 106.48 79.48 105.824 78.168 104.512C76.856 103.2 76.2 101.456 76.2 99.28V97.12C76.2 94.944 76.856 93.2 78.168 91.888C79.48 90.576 81.224 89.92 83.4 89.92H93.24V88C93.24 87.52 93.08 87.12 92.76 86.8C92.44 86.48 92.04 86.32 91.56 86.32C89.48 86.32 87.176 86.416 84.648 86.608C82.152 86.8 80.136 86.944 78.6 87.04V81.04ZM123.707 106C120.603 106.32 117.563 106.48 114.587 106.48C112.411 106.48 110.667 105.824 109.355 104.512C108.043 103.2 107.387 101.456 107.387 99.28V87.04H104.507V80.56H107.387L108.347 74.8H115.787V80.56H121.787V87.04H115.787V98.08C115.787 98.56 115.947 98.96 116.267 99.28C116.587 99.6 116.987 99.76 117.467 99.76H123.707V106Z" fill="#03A9F4"/>
</svg>
